<mxfile host="www.draw.io" modified="2019-11-05T11:46:48.210Z" agent="Mozilla/5.0 (Macintosh; Intel Mac OS X 10_15_0) AppleWebKit/537.36 (KHTML, like Gecko) Chrome/78.0.3904.70 Safari/537.36" etag="F7F526OOBSrHSI9VUXG6" version="12.2.0" type="github" pages="2">
  <diagram id="Of4niVttVYqBOUL4GN-B" name="第 1 页">
    <mxGraphModel dx="767" dy="421" grid="1" gridSize="10" guides="1" tooltips="1" connect="1" arrows="1" fold="1" page="1" pageScale="1" pageWidth="827" pageHeight="1169" math="0" shadow="0">
      <root>
        <mxCell id="0"/>
        <mxCell id="1" parent="0"/>
        <mxCell id="w5NOn14O0Qb6YLUYYEmP-10" value="" style="edgeStyle=orthogonalEdgeStyle;rounded=0;orthogonalLoop=1;jettySize=auto;html=1;" parent="1" source="w5NOn14O0Qb6YLUYYEmP-2" target="w5NOn14O0Qb6YLUYYEmP-9" edge="1">
          <mxGeometry relative="1" as="geometry"/>
        </mxCell>
        <mxCell id="w5NOn14O0Qb6YLUYYEmP-2" value="&lt;div&gt;&lt;span style=&quot;font-size: 10.2px ; letter-spacing: 0.2px&quot;&gt;&lt;font color=&quot;#333333&quot; face=&quot;Consolas, Liberation Mono, Menlo, Courier, monospace&quot;&gt;ReactRoot&lt;/font&gt;&lt;/span&gt;&lt;/div&gt;&lt;div&gt;&lt;span style=&quot;font-size: 10.2px ; letter-spacing: 0.2px&quot;&gt;&lt;font color=&quot;#333333&quot; face=&quot;Consolas, Liberation Mono, Menlo, Courier, monospace&quot;&gt;对象&lt;/font&gt;&lt;/span&gt;&lt;/div&gt;" style="ellipse;whiteSpace=wrap;html=1;aspect=fixed;" parent="1" vertex="1">
          <mxGeometry x="160" y="140" width="80" height="80" as="geometry"/>
        </mxCell>
        <mxCell id="w5NOn14O0Qb6YLUYYEmP-14" value="" style="edgeStyle=orthogonalEdgeStyle;rounded=0;orthogonalLoop=1;jettySize=auto;html=1;" parent="1" source="w5NOn14O0Qb6YLUYYEmP-9" target="w5NOn14O0Qb6YLUYYEmP-13" edge="1">
          <mxGeometry relative="1" as="geometry"/>
        </mxCell>
        <mxCell id="w5NOn14O0Qb6YLUYYEmP-9" value="&lt;font color=&quot;#333333&quot; face=&quot;Consolas, Liberation Mono, Menlo, Courier, monospace&quot;&gt;&lt;span style=&quot;font-size: 10.2px ; letter-spacing: 0.2px&quot;&gt;ReactRoot&lt;br&gt;.prototype&lt;br&gt;.render&lt;/span&gt;&lt;/font&gt;" style="ellipse;whiteSpace=wrap;html=1;aspect=fixed;" parent="1" vertex="1">
          <mxGeometry x="320" y="140" width="80" height="80" as="geometry"/>
        </mxCell>
        <mxCell id="w5NOn14O0Qb6YLUYYEmP-13" value="&lt;font color=&quot;#333333&quot; face=&quot;Consolas, Liberation Mono, Menlo, Courier, monospace&quot;&gt;&lt;span style=&quot;font-size: 10.2px ; letter-spacing: 0.2px&quot;&gt;schedule&lt;br&gt;RootUpdate&lt;/span&gt;&lt;/font&gt;" style="ellipse;whiteSpace=wrap;html=1;aspect=fixed;" parent="1" vertex="1">
          <mxGeometry x="320" y="280" width="80" height="80" as="geometry"/>
        </mxCell>
        <mxCell id="w5NOn14O0Qb6YLUYYEmP-15" value="&lt;font color=&quot;#333333&quot; face=&quot;Consolas, Liberation Mono, Menlo, Courier, monospace&quot;&gt;&lt;span style=&quot;font-size: 10.2px ; letter-spacing: 0.2px&quot;&gt;enqueue&lt;br&gt;Update&lt;/span&gt;&lt;/font&gt;" style="ellipse;whiteSpace=wrap;html=1;aspect=fixed;" parent="1" vertex="1">
          <mxGeometry x="320" y="520" width="80" height="80" as="geometry"/>
        </mxCell>
        <mxCell id="w5NOn14O0Qb6YLUYYEmP-33" value="current属性" style="edgeStyle=orthogonalEdgeStyle;rounded=0;orthogonalLoop=1;jettySize=auto;html=1;" parent="1" source="w5NOn14O0Qb6YLUYYEmP-3" target="w5NOn14O0Qb6YLUYYEmP-32" edge="1">
          <mxGeometry relative="1" as="geometry"/>
        </mxCell>
        <mxCell id="w5NOn14O0Qb6YLUYYEmP-3" value="FiberRoot" style="ellipse;whiteSpace=wrap;html=1;aspect=fixed;" parent="1" vertex="1">
          <mxGeometry x="160" y="280" width="80" height="80" as="geometry"/>
        </mxCell>
        <mxCell id="w5NOn14O0Qb6YLUYYEmP-32" value="Fiber&lt;br&gt;（记录节点的各种状态）" style="ellipse;whiteSpace=wrap;html=1;aspect=fixed;" parent="1" vertex="1">
          <mxGeometry x="160" y="420" width="80" height="80" as="geometry"/>
        </mxCell>
        <mxCell id="w5NOn14O0Qb6YLUYYEmP-4" value="&lt;span style=&quot;white-space: normal&quot;&gt;ReactDom&lt;br&gt;.render&lt;/span&gt;" style="ellipse;whiteSpace=wrap;html=1;aspect=fixed;" parent="1" vertex="1">
          <mxGeometry x="160" y="20" width="80" height="80" as="geometry"/>
        </mxCell>
        <mxCell id="w5NOn14O0Qb6YLUYYEmP-5" value="创建" style="endArrow=classic;html=1;entryX=0.5;entryY=0;entryDx=0;entryDy=0;" parent="1" target="w5NOn14O0Qb6YLUYYEmP-2" edge="1">
          <mxGeometry width="50" height="50" relative="1" as="geometry">
            <mxPoint x="200" y="100" as="sourcePoint"/>
            <mxPoint x="250" y="50" as="targetPoint"/>
          </mxGeometry>
        </mxCell>
        <mxCell id="w5NOn14O0Qb6YLUYYEmP-7" value="&lt;span style=&quot;font-size: 12px ; white-space: normal ; background-color: rgb(248 , 249 , 250)&quot;&gt;创建&lt;/span&gt;" style="endArrow=classic;html=1;" parent="1" edge="1">
          <mxGeometry width="50" height="50" relative="1" as="geometry">
            <mxPoint x="200" y="220" as="sourcePoint"/>
            <mxPoint x="200" y="280" as="targetPoint"/>
          </mxGeometry>
        </mxCell>
        <mxCell id="w5NOn14O0Qb6YLUYYEmP-20" value="schedule&lt;br&gt;Work" style="ellipse;whiteSpace=wrap;html=1;aspect=fixed;" parent="1" vertex="1">
          <mxGeometry x="530" y="520" width="80" height="80" as="geometry"/>
        </mxCell>
        <mxCell id="w5NOn14O0Qb6YLUYYEmP-25" value="" style="edgeStyle=orthogonalEdgeStyle;rounded=0;orthogonalLoop=1;jettySize=auto;html=1;" parent="1" source="w5NOn14O0Qb6YLUYYEmP-23" target="w5NOn14O0Qb6YLUYYEmP-24" edge="1">
          <mxGeometry relative="1" as="geometry"/>
        </mxCell>
        <mxCell id="w5NOn14O0Qb6YLUYYEmP-23" value="setState/&lt;br&gt;forceUpdate" style="ellipse;whiteSpace=wrap;html=1;aspect=fixed;" parent="1" vertex="1">
          <mxGeometry x="500" y="140" width="80" height="80" as="geometry"/>
        </mxCell>
        <mxCell id="w5NOn14O0Qb6YLUYYEmP-24" value="enqueue&lt;br&gt;SetState" style="ellipse;whiteSpace=wrap;html=1;aspect=fixed;" parent="1" vertex="1">
          <mxGeometry x="500" y="280" width="80" height="80" as="geometry"/>
        </mxCell>
        <mxCell id="w5NOn14O0Qb6YLUYYEmP-27" value="共同进入调用&lt;br&gt;下面方法" style="rounded=1;whiteSpace=wrap;html=1;" parent="1" vertex="1">
          <mxGeometry x="410" y="410" width="100" height="40" as="geometry"/>
        </mxCell>
        <mxCell id="w5NOn14O0Qb6YLUYYEmP-28" value="" style="endArrow=classic;html=1;entryX=0.25;entryY=0;entryDx=0;entryDy=0;" parent="1" target="w5NOn14O0Qb6YLUYYEmP-27" edge="1">
          <mxGeometry width="50" height="50" relative="1" as="geometry">
            <mxPoint x="360" y="360" as="sourcePoint"/>
            <mxPoint x="410" y="310" as="targetPoint"/>
          </mxGeometry>
        </mxCell>
        <mxCell id="w5NOn14O0Qb6YLUYYEmP-29" value="" style="endArrow=classic;html=1;entryX=0.75;entryY=0;entryDx=0;entryDy=0;" parent="1" target="w5NOn14O0Qb6YLUYYEmP-27" edge="1">
          <mxGeometry width="50" height="50" relative="1" as="geometry">
            <mxPoint x="540" y="360" as="sourcePoint"/>
            <mxPoint x="590" y="310" as="targetPoint"/>
          </mxGeometry>
        </mxCell>
        <mxCell id="w5NOn14O0Qb6YLUYYEmP-30" value="update&lt;br&gt;放到队列中" style="endArrow=classic;html=1;entryX=0.5;entryY=0;entryDx=0;entryDy=0;" parent="1" target="w5NOn14O0Qb6YLUYYEmP-15" edge="1">
          <mxGeometry width="50" height="50" relative="1" as="geometry">
            <mxPoint x="440" y="450" as="sourcePoint"/>
            <mxPoint x="440" y="500" as="targetPoint"/>
          </mxGeometry>
        </mxCell>
        <mxCell id="w5NOn14O0Qb6YLUYYEmP-31" value="开始进行&lt;br&gt;任务调度" style="endArrow=classic;html=1;entryX=0.375;entryY=0;entryDx=0;entryDy=0;entryPerimeter=0;" parent="1" target="w5NOn14O0Qb6YLUYYEmP-20" edge="1">
          <mxGeometry width="50" height="50" relative="1" as="geometry">
            <mxPoint x="475" y="450" as="sourcePoint"/>
            <mxPoint x="525" y="400" as="targetPoint"/>
          </mxGeometry>
        </mxCell>
      </root>
    </mxGraphModel>
  </diagram>
  <diagram id="1Ukko-2H9rly_0MM-5mt" name="第 2 页">
    <mxGraphModel dx="767" dy="421" grid="1" gridSize="10" guides="1" tooltips="1" connect="1" arrows="1" fold="1" page="1" pageScale="1" pageWidth="827" pageHeight="1169" math="0" shadow="0">
      <root>
        <mxCell id="hI8QorIekLSHG9UNh6iG-0"/>
        <mxCell id="hI8QorIekLSHG9UNh6iG-1" parent="hI8QorIekLSHG9UNh6iG-0"/>
        <mxCell id="hI8QorIekLSHG9UNh6iG-11" value="" style="rounded=1;whiteSpace=wrap;html=1;" vertex="1" parent="hI8QorIekLSHG9UNh6iG-1">
          <mxGeometry x="390" y="30" width="210" height="530" as="geometry"/>
        </mxCell>
        <mxCell id="hI8QorIekLSHG9UNh6iG-2" value="&lt;span style=&quot;color: rgb(51 , 51 , 51) ; font-family: &amp;#34;consolas&amp;#34; , &amp;#34;liberation mono&amp;#34; , &amp;#34;menlo&amp;#34; , &amp;#34;courier&amp;#34; , monospace ; font-size: 10.2px ; letter-spacing: 0.2px ; white-space: normal&quot;&gt;enqueue&lt;/span&gt;&lt;br style=&quot;color: rgb(51 , 51 , 51) ; font-family: &amp;#34;consolas&amp;#34; , &amp;#34;liberation mono&amp;#34; , &amp;#34;menlo&amp;#34; , &amp;#34;courier&amp;#34; , monospace ; font-size: 10.2px ; letter-spacing: 0.2px ; white-space: normal&quot;&gt;&lt;span style=&quot;color: rgb(51 , 51 , 51) ; font-family: &amp;#34;consolas&amp;#34; , &amp;#34;liberation mono&amp;#34; , &amp;#34;menlo&amp;#34; , &amp;#34;courier&amp;#34; , monospace ; font-size: 10.2px ; letter-spacing: 0.2px ; white-space: normal&quot;&gt;Update&lt;/span&gt;" style="ellipse;whiteSpace=wrap;html=1;aspect=fixed;" vertex="1" parent="hI8QorIekLSHG9UNh6iG-1">
          <mxGeometry x="80" y="40" width="80" height="80" as="geometry"/>
        </mxCell>
        <mxCell id="hI8QorIekLSHG9UNh6iG-5" value="next" style="edgeStyle=orthogonalEdgeStyle;rounded=0;orthogonalLoop=1;jettySize=auto;html=1;" edge="1" parent="hI8QorIekLSHG9UNh6iG-1" source="hI8QorIekLSHG9UNh6iG-3" target="hI8QorIekLSHG9UNh6iG-4">
          <mxGeometry relative="1" as="geometry"/>
        </mxCell>
        <mxCell id="hI8QorIekLSHG9UNh6iG-3" value="update" style="rounded=1;whiteSpace=wrap;html=1;" vertex="1" parent="hI8QorIekLSHG9UNh6iG-1">
          <mxGeometry x="435" y="130" width="120" height="60" as="geometry"/>
        </mxCell>
        <mxCell id="hI8QorIekLSHG9UNh6iG-4" value="update2" style="rounded=1;whiteSpace=wrap;html=1;" vertex="1" parent="hI8QorIekLSHG9UNh6iG-1">
          <mxGeometry x="435" y="250" width="120" height="60" as="geometry"/>
        </mxCell>
        <mxCell id="hI8QorIekLSHG9UNh6iG-7" value="lastUpdate" style="rounded=1;whiteSpace=wrap;html=1;" vertex="1" parent="hI8QorIekLSHG9UNh6iG-1">
          <mxGeometry x="435" y="40" width="120" height="50" as="geometry"/>
        </mxCell>
        <mxCell id="hI8QorIekLSHG9UNh6iG-8" value="firstUpdate" style="rounded=1;whiteSpace=wrap;html=1;" vertex="1" parent="hI8QorIekLSHG9UNh6iG-1">
          <mxGeometry x="435" y="480" width="120" height="60" as="geometry"/>
        </mxCell>
        <mxCell id="hI8QorIekLSHG9UNh6iG-12" value="next" style="endArrow=classic;html=1;entryX=0.5;entryY=0;entryDx=0;entryDy=0;" edge="1" parent="hI8QorIekLSHG9UNh6iG-1" target="hI8QorIekLSHG9UNh6iG-3">
          <mxGeometry width="50" height="50" relative="1" as="geometry">
            <mxPoint x="495" y="90" as="sourcePoint"/>
            <mxPoint x="485" y="160" as="targetPoint"/>
          </mxGeometry>
        </mxCell>
        <mxCell id="hI8QorIekLSHG9UNh6iG-13" value="......" style="rounded=1;whiteSpace=wrap;html=1;" vertex="1" parent="hI8QorIekLSHG9UNh6iG-1">
          <mxGeometry x="435" y="365" width="120" height="60" as="geometry"/>
        </mxCell>
        <mxCell id="hI8QorIekLSHG9UNh6iG-14" value="next" style="endArrow=classic;html=1;entryX=0.5;entryY=0;entryDx=0;entryDy=0;exitX=0.5;exitY=1;exitDx=0;exitDy=0;" edge="1" parent="hI8QorIekLSHG9UNh6iG-1" source="hI8QorIekLSHG9UNh6iG-4" target="hI8QorIekLSHG9UNh6iG-13">
          <mxGeometry width="50" height="50" relative="1" as="geometry">
            <mxPoint x="490" y="310" as="sourcePoint"/>
            <mxPoint x="540" y="260" as="targetPoint"/>
          </mxGeometry>
        </mxCell>
        <mxCell id="hI8QorIekLSHG9UNh6iG-15" value="next" style="endArrow=classic;html=1;entryX=0.5;entryY=0;entryDx=0;entryDy=0;" edge="1" parent="hI8QorIekLSHG9UNh6iG-1" target="hI8QorIekLSHG9UNh6iG-8">
          <mxGeometry width="50" height="50" relative="1" as="geometry">
            <mxPoint x="495" y="410" as="sourcePoint"/>
            <mxPoint x="535" y="380" as="targetPoint"/>
          </mxGeometry>
        </mxCell>
      </root>
    </mxGraphModel>
  </diagram>
</mxfile>
